# File created by Blade
# Date/Time:  Wed Jan 21 18:34:34 2015
#---------------------------------------------------------
:version 1.10
:name HOM
:units
  mass 1.0
  length 1.000000
  angle deg
:documentation
     Acclaim Skeleton File
:root
   axis xyz
   order TX TY TZ RX RY RZ
   position 0.000000 0.000000 0.000000
   orientation 0 0 0
:bonedata
   begin
      id 1
      name RightUpLeg_dum
      direction -1.000000 0.000000 0.000000
      length 3.693983
      axis 0.0 0.0 0.0 xyz
   end
   begin
      id 2
      name LeftUpLeg_dum
      direction 1.000000 0.000000 0.000000
      length 3.693983
      axis 0.0 0.0 0.0 xyz
   end
   begin
      id 3
      name Spine_dum
      direction 0.000000 1.000000 0.000000
      length 2.392956
      axis 0.0 0.0 0.0 xyz
   end
   begin
      id 4
      name RightUpLeg
      direction 0.000000 -1.000000 0.000000
      length 15.795667
      axis 0.0 0.0 0.0 xyz
      dof rx ry rz
   end
   begin
      id 5
      name RightLeg
      direction 0.000000 -1.000000 0.000000
      length 14.766989
      axis 0.0 0.0 0.0 xyz
      dof rx ry rz
   end
   begin
      id 6
      name RightFoot
      direction 0.000000 -0.258819 0.965926
      length 4.962790
      axis 15.0 0.0 0.0 xyz
      dof rx ry rz
   end
   begin
      id 7
      name RightToeBase
      direction 0.000000 0.000000 1.000000
      length 2.952750
      axis 0.0 0.0 0.0 xyz
      dof rx ry rz
   end
   begin
      id 8
      name LeftUpLeg
      direction 0.000000 -1.000000 0.000000
      length 15.795667
      axis 0.0 0.0 0.0 xyz
      dof rx ry rz
   end
   begin
      id 9
      name LeftLeg
      direction 0.000000 -1.000000 0.000000
      length 14.766989
      axis 0.0 0.0 0.0 xyz
      dof rx ry rz
   end
   begin
      id 10
      name LeftFoot
      direction 0.000000 -0.258819 0.965926
      length 4.962790
      axis 15.0 0.0 0.0 xyz
      dof rx ry rz
   end
   begin
      id 11
      name LeftToeBase
      direction 0.000000 0.000000 1.000000
      length 2.952750
      axis 0.0 0.0 0.0 xyz
      dof rx ry rz
   end
   begin
      id 12
      name Spine
      direction 0.000000 1.000000 0.000000
      length 0.000000
      axis 0.0 0.0 0.0 xyz
      dof rx ry rz
   end
   begin
      id 13
      name Spine_dum1
      direction 0.000000 1.000000 0.000000
      length 13.207411
      axis 0.0 0.0 0.0 xyz
   end
   begin
      id 14
      name Spine_dum2
      direction 0.000000 1.000000 0.000000
      length 13.207411
      axis 0.0 0.0 0.0 xyz
   end
   begin
      id 15
      name Spine_dum3
      direction 0.000000 1.000000 0.000000
      length 19.250100
      axis 0.0 0.0 0.0 xyz
   end
   begin
      id 16
      name RightShoulder
      direction -1.000000 0.000000 0.000000
      length 8.140465
      axis 0.0 0.0 90.0 xyz
      dof rx ry rz
   end
   begin
      id 17
      name RightArm
      direction -1.000000 0.000000 0.000000
      length 10.649840
      axis 0.0 0.0 90.0 xyz
      dof rx ry rz
   end
   begin
      id 18
      name RightForeArm
      direction -1.000000 0.000000 0.000000
      length 8.304624
      axis 0.0 0.0 90.0 xyz
      dof ry rz rx
   end
   begin
      id 19
      name RightHand
      direction -1.000000 0.000000 0.000000
      length 0.000000
      axis 0.0 0.0 90.0 xyz
      dof rx ry rz
   end
   begin
      id 20
      name RightHand_dum1
      direction -1.000000 0.000000 0.000000
      length 3.937000
      axis 0.0 0.0 90.0 xyz
   end
   begin
      id 21
      name RightHand_dum2
      direction 0.000000 0.000000 0.000000
      length 0.000000
      axis 0.0 0.0 90.0 xyz
   end
   begin
      id 22
      name RightHandThumb1
      direction 0.000000 0.000000 1.000000
      length 3.937000
      axis 0.0 0.0 90.0 xyz
      dof rx rz ry
   end
   begin
      id 23
      name LeftShoulder
      direction 1.000000 0.000000 0.000000
      length 8.140465
      axis 0.0 0.0 -90.0 xyz
      dof rx ry rz
   end
   begin
      id 24
      name LeftArm
      direction 1.000000 0.000000 0.000000
      length 10.649840
      axis 0.0 0.0 -90.0 xyz
      dof rx ry rz
   end
   begin
      id 25
      name LeftForeArm
      direction 1.000000 0.000000 0.000000
      length 8.304624
      axis 0.0 0.0 -90.0 xyz
      dof ry rz rx
   end
   begin
      id 26
      name LeftHand
      direction 1.000000 0.000000 0.000000
      length 0.000000
      axis 0.0 0.0 -90.0 xyz
      dof rx ry rz
   end
   begin
      id 27
      name LeftHand_dum1
      direction 1.000000 0.000000 0.000000
      length 3.937000
      axis 0.0 0.0 -90.0 xyz
   end
   begin
      id 28
      name LeftHand_dum2
      direction 0.000000 0.000000 0.000000
      length 0.000000
      axis 0.0 0.0 -90.0 xyz
   end
   begin
      id 29
      name LeftHandThumb1
      direction 0.000000 0.000000 1.000000
      length 3.937000
      axis 0.0 0.0 -90.0 xyz
      dof rx rz ry
   end
   begin
      id 30
      name Head
      direction 0.000000 1.000000 0.000000
      length 4.527550
      axis 0.0 0.0 0.0 xyz
      dof rx ry rz
   end
:hierarchy
   begin
      root RightUpLeg_dum LeftUpLeg_dum Spine_dum
      RightUpLeg_dum RightUpLeg
      LeftUpLeg_dum LeftUpLeg
      Spine_dum Spine
      RightUpLeg RightLeg
      RightLeg RightFoot
      RightFoot RightToeBase
      LeftUpLeg LeftLeg
      LeftLeg LeftFoot
      LeftFoot LeftToeBase
      Spine Spine_dum1 Spine_dum2 Spine_dum3
      Spine_dum1 RightShoulder
      Spine_dum2 LeftShoulder
      Spine_dum3 Head
      RightShoulder RightArm
      RightArm RightForeArm
      RightForeArm RightHand
      RightHand RightHand_dum1 RightHand_dum2
      RightHand_dum2 RightHandThumb1
      LeftShoulder LeftArm
      LeftArm LeftForeArm
      LeftForeArm LeftHand
      LeftHand LeftHand_dum1 LeftHand_dum2
      LeftHand_dum2 LeftHandThumb1
   end

# File created by Blade
# Date/Time:  Wed Jan 21 18:34:41 2015
# Frame Rate: 120.000 fps
#------------------------------------------------------
:FULLY-SPECIFIED
:DEGREES
1
root 1.792449 32.829611 -6.993834 43.821844 4.380253 1.780967
RightUpLeg -37.137576 -8.719279 4.277071
RightLeg -1.958328 -0.000000 0.000000
RightFoot -10.174958 1.106658 18.045861
RightToeBase 16.941595 -0.000000 -0.000000
LeftUpLeg -39.417110 3.525869 -2.337497
LeftLeg 2.238697 -0.000000 -0.000000
LeftFoot -7.486268 -5.761346 -6.407759
LeftToeBase 7.168233 -0.000000 -0.000000
Spine -46.273717 -1.189363 -0.817585
RightShoulder -18.880287 12.642748 -45.345231
RightArm 0.553590 -11.414712 42.259357
RightForeArm 8.021374 -0.000000 -7.227208
RightHand 7.415874 0.000000 9.395449
RightHandThumb1 -24.326973 -0.000000 -32.862282
LeftShoulder -11.303962 2.448322 40.280149
LeftArm 19.958441 -19.256895 -41.376308
LeftForeArm 18.234374 -0.000000 -3.460401
LeftHand -25.875909 -0.000000 -1.844362
LeftHandThumb1 -26.253704 0.000000 33.147579
Head 6.206460 -3.424607 4.678009
2
root 1.796089 32.831945 -7.033017 43.874588 4.399327 1.766726
RightUpLeg -37.285632 -8.732664 4.310917
RightLeg -1.887851 -0.000000 0.000000
RightFoot -10.231265 1.061644 18.167367
RightToeBase 17.105020 -0.000000 -0.000000
LeftUpLeg -39.529958 3.603851 -2.399559
LeftLeg 2.207525 -0.000000 -0.000000
LeftFoot -7.435775 -5.849944 -6.458624
LeftToeBase 7.237361 -0.000000 -0.000000
Spine -46.226059 -1.191244 -0.800655
RightShoulder -18.873349 12.678506 -45.304425
RightArm 0.593133 -11.436642 42.282156
RightForeArm 8.006633 0.000000 -7.178120
RightHand 7.363321 -0.000000 9.361766
RightHandThumb1 -24.326973 -0.000000 -32.862282
LeftShoulder -11.305403 2.442320 40.311738
LeftArm 19.945679 -19.225935 -41.386199
LeftForeArm 18.162763 -0.000000 -3.491746
LeftHand -25.864248 -0.000000 -1.993451
LeftHandThumb1 -26.253704 0.000000 33.147579
Head 6.174003 -3.411505 4.707984
3
root 1.798200 32.834040 -7.069149 43.905253 4.445286 1.757411
RightUpLeg -37.410413 -8.781007 4.367703
RightLeg -1.807268 -0.000000 0.000000
RightFoot -10.299080 1.034698 18.338364
RightToeBase 17.240019 -0.000000 -0.000000
LeftUpLeg -39.617360 3.649011 -2.435305
LeftLeg 2.176950 -0.000000 -0.000000
LeftFoot -7.386414 -5.888038 -6.487576
LeftToeBase 7.302906 -0.000000 -0.000000
Spine -46.164574 -1.193416 -0.795772
RightShoulder -18.875335 12.664327 -45.267015
RightArm 0.629651 -11.501687 42.319045
RightForeArm 8.126928 -0.000000 -7.140025
RightHand 7.418450 -0.000000 9.343300
RightHandThumb1 -24.326973 -0.000000 -32.862282
LeftShoulder -11.267360 2.418976 40.343982
LeftArm 19.924555 -19.189820 -41.381995
LeftForeArm 18.113627 -0.000000 -3.532476
LeftHand -25.860293 -0.000000 -2.064078
LeftHandThumb1 -26.253704 0.000000 33.147579
Head 6.150235 -3.421475 4.748508
4
root 1.800302 32.836521 -7.105502 43.953151 4.482117 1.750051
RightUpLeg -37.565381 -8.786898 4.394094
RightLeg -1.686734 -0.000000 0.000000
RightFoot -10.433249 0.897705 18.518663
RightToeBase 17.591164 -0.000000 -0.000000
LeftUpLeg -39.720116 3.691177 -2.471450
LeftLeg 2.143356 -0.000000 -0.000000
LeftFoot -7.330370 -5.943114 -6.577129
LeftToeBase 7.400442 -0.000000 -0.000000
Spine -46.122978 -1.186960 -0.808251
RightShoulder -18.889344 12.655839 -45.235708
RightArm 0.669636 -11.519981 42.353007
RightForeArm 8.144634 0.000000 -7.114618
RightHand 7.489608 0.000000 9.335501
RightHandThumb1 -24.326973 -0.000000 -32.862282
LeftShoulder -11.229175 2.405894 40.378979
LeftArm 19.935904 -19.218655 -41.400696
LeftForeArm 18.139939 0.000000 -3.583644
LeftHand -25.878590 0.000000 -2.128881
LeftHandThumb1 -26.253704 0.000000 33.147579
Head 6.139291 -3.460234 4.802734
5
root 1.802911 32.839199 -7.142933 43.995057 4.547867 1.744681
RightUpLeg -37.714655 -8.785860 4.409893
RightLeg -1.559196 -0.000000 0.000000
RightFoot -10.589274 0.653930 18.621982
RightToeBase 17.275215 -0.000000 -0.000000
LeftUpLeg -39.832912 3.699442 -2.487883
LeftLeg 2.139992 -0.000000 -0.000000
LeftFoot -7.309003 -5.945748 -6.609647
LeftToeBase 7.461813 -0.000000 -0.000000
Spine -46.072215 -1.206016 -0.786540
RightShoulder -18.892373 12.623152 -45.201702
RightArm 0.744114 -11.534754 42.394445
RightForeArm 8.172695 -0.000000 -7.103358
RightHand 7.538273 -0.000000 9.361281
RightHandThumb1 -24.326973 -0.000000 -32.862282
LeftShoulder -11.205785 2.396746 40.394471
LeftArm 19.940171 -19.223638 -41.390894
LeftForeArm 18.162642 -0.000000 -3.619156
LeftHand -25.890322 -0.000000 -2.258482
LeftHandThumb1 -26.253704 0.000000 33.147579
Head 6.123578 -3.483315 4.839287
6
root 1.806681 32.841245 -7.176221 44.013089 4.625637 1.731513
RightUpLeg -37.834425 -8.807042 4.452429
RightLeg -1.448807 -0.000000 0.000000
RightFoot -10.765723 0.439784 18.674305
RightToeBase 17.607128 -0.000000 -0.000000
LeftUpLeg -39.912200 3.691584 -2.483407
LeftLeg 2.128378 -0.000000 -0.000000
LeftFoot -7.309976 -5.887858 -6.575388
LeftToeBase 7.579645 -0.000000 -0.000000
Spine -46.011469 -1.231336 -0.741397
RightShoulder -18.880458 12.635740 -45.189317
RightArm 0.784575 -11.515344 42.442807
RightForeArm 8.251254 -0.000000 -7.105022
RightHand 7.476711 -0.000000 9.284941
RightHandThumb1 -24.326973 -0.000000 -32.862282
LeftShoulder -11.186687 2.398857 40.429076
LeftArm 19.939516 -19.289955 -41.437481
LeftForeArm 18.254942 -0.000000 -3.618453
LeftHand -25.854501 -0.000000 -2.215479
LeftHandThumb1 -26.253704 0.000000 33.147579
Head 6.136338 -3.492088 4.877475
